HIERARCHY
ROOT Hips
{
	OFFSET 52.354000 4.061912 54.065899
	CHANNELS 6 Xposition Yposition Zposition Xrotation Yrotation Zrotation
	JOINT spine
	{
		OFFSET 0.000000 -0.458068 7.965679
		CHANNELS 3 Xrotation Yrotation Zrotation
		JOINT spine1
		{
			OFFSET 0.000000 -0.000002 10.243103
			CHANNELS 3 Xrotation Yrotation Zrotation
			JOINT spine2
			{
				OFFSET 0.000000 -0.000002 9.814751
				CHANNELS 3 Xrotation Yrotation Zrotation
				JOINT Neck
				{
					OFFSET 0.000000 -1.201384 25.198601
					CHANNELS 3 Xrotation Yrotation Zrotation
					JOINT Head
					{
						OFFSET 0.000000 -0.000001 7.613152
						CHANNELS 3 Xrotation Yrotation Zrotation
						End Site
						{
							OFFSET 0.000000 6.077327 18.428101
						}
					}
				}
				JOINT RightShoulder
				{
					OFFSET -4.132702 0.575449 10.599197
					CHANNELS 3 Xrotation Yrotation Zrotation
					JOINT RightArm
					{
						OFFSET 0.000000 -0.000002 13.901802
						CHANNELS 3 Xrotation Yrotation Zrotation
						JOINT RightArmRoll
						{
							OFFSET 0.000000 -0.000001 7.017891
							CHANNELS 3 Xrotation Yrotation Zrotation
							JOINT RightForeArm
							{
								OFFSET 0.000000 -0.000003 20.440598
								CHANNELS 3 Xrotation Yrotation Zrotation
								JOINT RightForeArmRoll
								{
									OFFSET 0.000000 -0.000001 7.875153
									CHANNELS 3 Xrotation Yrotation Zrotation
									JOINT RightHand
									{
										OFFSET 0.000000 -0.000003 15.803696
										CHANNELS 3 Xrotation Yrotation Zrotation
										End Site
										{
											OFFSET 0.000000 0.000000 0.100006
										}
									}
								}
							}
						}
					}
				}
				JOINT LeftShoulder
				{
					OFFSET 4.132702 0.575449 10.599197
					CHANNELS 3 Xrotation Yrotation Zrotation
					JOINT LeftArm
					{
						OFFSET 0.000000 -0.000002 13.901802
						CHANNELS 3 Xrotation Yrotation Zrotation
						JOINT LeftArmRoll
						{
							OFFSET 0.000000 -0.000001 7.017883
							CHANNELS 3 Xrotation Yrotation Zrotation
							JOINT LeftForeArm
							{
								OFFSET 0.000000 -0.000003 20.440605
								CHANNELS 3 Xrotation Yrotation Zrotation
								JOINT LeftForeArmRoll
								{
									OFFSET 0.000000 -0.000001 7.875153
									CHANNELS 3 Xrotation Yrotation Zrotation
									JOINT LeftHand
									{
										OFFSET 0.000000 -0.000003 15.803696
										CHANNELS 3 Xrotation Yrotation Zrotation
										End Site
										{
											OFFSET 0.000000 0.000000 0.100006
										}
									}
								}
							}
						}
					}
				}
			}
		}
	}
	JOINT RightUpLeg
	{
		OFFSET -7.060482 1.086100 -1.294701
		CHANNELS 3 Xrotation Yrotation Zrotation
		JOINT RightUpLegRoll
		{
			OFFSET 0.000000 -0.000003 18.530804
			CHANNELS 3 Xrotation Yrotation Zrotation
			JOINT RightLeg
			{
				OFFSET 0.000000 0.000003 -22.947601
				CHANNELS 3 Xrotation Yrotation Zrotation
				JOINT RightLegRoll
				{
					OFFSET 0.000000 -0.000003 23.022598
					CHANNELS 3 Xrotation Yrotation Zrotation
					JOINT RightFoot
					{
						OFFSET 0.000000 -0.000003 19.162498
						CHANNELS 3 Xrotation Yrotation Zrotation
						JOINT RightToeBase
						{
							OFFSET 0.000000 -0.000002 16.018799
							CHANNELS 3 Xrotation Yrotation Zrotation
							End Site
							{
								OFFSET 0.006790 0.894205 7.757820
							}
						}
					}
				}
			}
		}
	}
	JOINT LeftUpLeg
	{
		OFFSET 7.060482 1.086100 -1.294701
		CHANNELS 3 Xrotation Yrotation Zrotation
		JOINT LeftUpLegRoll
		{
			OFFSET 0.000000 -0.000003 18.530895
			CHANNELS 3 Xrotation Yrotation Zrotation
			JOINT LeftLeg
			{
				OFFSET 0.000000 -0.000004 22.947502
				CHANNELS 3 Xrotation Yrotation Zrotation
				JOINT LeftLegRoll
				{
					OFFSET 0.000000 -0.000004 23.235497
					CHANNELS 3 Xrotation Yrotation Zrotation
					JOINT LeftFoot
					{
						OFFSET 0.000000 -0.000003 18.949600
						CHANNELS 3 Xrotation Yrotation Zrotation
						JOINT LeftToeBase
						{
							OFFSET 0.000000 -0.000002 16.018799
							CHANNELS 3 Xrotation Yrotation Zrotation
							End Site
							{
								OFFSET -0.030430 0.894206 7.757812
							}
						}
					}
				}
			}
		}
	}
}
MOTION
Frames: 10
Frame Time: 0.041667
52.586704 5.561041 54.067200 -5.130919 -1.178829 1.685279 4.483846 -0.722866 -0.970636 12.959381 -1.526872 -1.872080 14.604355 -1.549190 -1.853666 3.913848 17.224825 -1.169409 4.394163 -14.877892 -1.215106 -6.679037 -51.182289 -7.224628 -48.889258 -124.773035 -81.819198 -0.000001 0.000001 -0.000001 79.157869 -5.254793 -1.283820 -0.000000 0.000007 -2.999991 -5.000174 -7.999013 0.000148 -9.259122 57.275190 10.822946 -82.691311 101.016401 138.926690 0.000004 0.000013 0.000001 94.824725 -0.523600 11.721052 -0.000003 -0.000012 3.000001 -5.000221 7.998723 -0.000189 -86.021178 -173.176919 2.111281 179.999991 -0.000004 -1.689005 78.016798 5.899017 3.558281 -0.000004 -0.000001 2.612551 71.168256 6.925257 1.870102 27.009686 -7.296870 2.291415 -86.557054 174.041812 0.443465 -0.000020 -0.000005 -1.596160 -99.475319 -5.084019 -3.104631 -0.000003 0.000006 -2.774320 67.013479 -7.198377 -1.495794 27.326685 7.275092 -2.669028 
52.587101 5.562271 54.060196 -5.230395 -1.185585 1.700747 4.472381 -0.719366 -0.972355 12.936529 -1.519887 -1.876395 14.581498 -1.542257 -1.858058 3.890934 17.199916 -1.163422 4.553264 -14.865727 -1.191376 -6.676402 -51.260556 -7.228381 -49.026872 -124.804918 -81.884556 -0.000002 0.000001 -0.000001 78.995673 -5.321988 -1.217216 -0.000000 0.000007 -2.999991 -5.000172 -7.999008 0.000151 -9.272871 57.309863 10.841651 -82.662180 101.066050 138.830507 0.000000 0.000014 -0.000001 94.747687 -0.470501 11.634501 -0.000001 -0.000014 3.000002 -5.000221 7.998724 -0.000188 -85.934080 -173.147385 2.114234 179.999991 -0.000005 -1.690003 78.000207 5.902089 3.564464 -0.000005 -0.000001 2.612620 71.168495 6.925322 1.870598 27.011378 -7.296676 2.294001 -86.468344 174.055159 0.437556 -0.000020 -0.000004 -1.598630 -99.490994 -5.087240 -3.110599 -0.000004 0.000006 -2.774500 67.015309 -7.198518 -1.496002 27.327501 7.275054 -2.670324 
52.580505 5.601530 54.072498 -5.329063 -1.191699 1.716428 4.460618 -0.716780 -0.973826 12.912992 -1.514689 -1.880003 14.557951 -1.537098 -1.861735 3.874308 17.185961 -1.159453 4.710820 -14.861366 -1.169215 -6.673355 -51.332734 -7.231073 -49.157882 -124.838509 -81.940857 -0.000001 0.000001 -0.000003 78.831817 -5.389017 -1.150774 -0.000001 0.000006 -2.999992 -5.000170 -7.999015 0.000149 -9.284504 57.351145 10.858254 -82.636157 101.116832 138.734980 0.000003 0.000014 -0.000001 94.670056 -0.415847 11.545944 0.000001 -0.000011 3.000000 -5.000223 7.998726 -0.000188 -85.847746 -173.117920 2.117585 179.999991 -0.000004 -1.691000 77.983425 5.905032 3.570653 -0.000006 -0.000001 2.612700 71.169157 6.925379 1.871166 27.012987 -7.296501 2.296508 -86.380596 174.069557 0.432660 -0.000020 -0.000005 -1.601140 -99.508534 -5.091013 -3.117694 -0.000004 0.000006 -2.774909 67.019250 -7.198680 -1.496077 27.328096 7.275012 -2.671340 
52.581604 5.594810 54.064198 -5.427007 -1.197341 1.732327 4.448593 -0.714947 -0.975169 12.888955 -1.510964 -1.883184 14.533919 -1.533423 -1.864955 3.863886 17.182767 -1.157226 4.867284 -14.864892 -1.148080 -6.669328 -51.399059 -7.232012 -49.281901 -124.874846 -81.987740 -0.000002 0.000001 -0.000001 78.665816 -5.456188 -1.084341 0.000001 0.000007 -2.999992 -5.000175 -7.999012 0.000150 -9.295825 57.398362 10.874846 -82.613474 101.169151 138.641256 0.000003 0.000016 -0.000001 94.591884 -0.359399 11.457408 -0.000004 -0.000012 3.000001 -5.000221 7.998722 -0.000189 -85.762034 -173.088468 2.120533 179.999991 -0.000004 -1.691997 77.966172 5.907913 3.576859 -0.000006 -0.000001 2.612780 71.170448 6.925434 1.871795 27.014593 -7.296328 2.298948 -86.293484 174.084597 0.429122 -0.000020 -0.000005 -1.603690 -99.528212 -5.095244 -3.125923 -0.000005 0.000006 -2.775581 67.025712 -7.198866 -1.496091 27.328605 7.274969 -2.672089 
52.593605 5.560842 54.036701 -5.524340 -1.202541 1.748392 4.436361 -0.713773 -0.976394 12.864437 -1.508539 -1.885978 14.509496 -1.531026 -1.867782 3.859031 17.188948 -1.156549 5.022769 -14.875314 -1.127829 -6.664344 -51.460448 -7.231321 -49.398985 -124.913887 -82.025552 -0.000002 0.000002 -0.000002 78.498080 -5.523495 -1.018008 -0.000000 0.000005 -2.999990 -5.000175 -7.999012 0.000147 -9.306732 57.450852 10.891276 -82.591850 101.222673 138.546726 -0.000002 0.000013 0.000001 94.513255 -0.301443 11.365880 -0.000004 -0.000012 3.000000 -5.000222 7.998723 -0.000187 -85.676780 -173.059208 2.123901 179.999991 -0.000004 -1.692994 77.948557 5.910707 3.582973 -0.000005 -0.000001 2.612860 71.172402 6.925507 1.872186 27.016098 -7.296163 2.301313 -86.206843 174.100484 0.425872 -0.000020 -0.000004 -1.606271 -99.549659 -5.099755 -3.136262 -0.000004 0.000005 -2.776471 67.034386 -7.199038 -1.496258 27.328997 7.274925 -2.672611 
52.592701 5.575211 54.037495 -5.621210 -1.207358 1.764575 4.423971 -0.713162 -0.977497 12.839718 -1.507224 -1.888422 14.484675 -1.529735 -1.870243 3.859179 17.203416 -1.157280 5.177380 -14.892220 -1.108272 -6.658436 -51.517767 -7.229110 -49.511519 -124.954459 -82.057012 -0.000002 0.000001 0.000003 78.329040 -5.590851 -0.951741 -0.000001 0.000007 -2.999990 -5.000175 -7.999011 0.000148 -9.317120 57.507611 10.907345 -82.570136 101.277198 138.450298 0.000002 0.000014 0.000001 94.434107 -0.242086 11.273362 -0.000005 -0.000014 3.000001 -5.000217 7.998722 -0.000190 -85.591894 -173.029906 2.126594 179.999991 -0.000004 -1.694005 77.930703 5.913479 3.589098 -0.000006 -0.000001 2.612949 71.174765 6.925550 1.872846 27.017606 -7.295985 2.303622 -86.120639 174.116835 0.423978 -0.000020 -0.000004 -1.608880 -99.572458 -5.104737 -3.145696 -0.000004 0.000006 -2.777550 67.044836 -7.199195 -1.496506 27.329204 7.274879 -2.672907 
52.598999 5.562250 54.029995 -5.717772 -1.211823 1.780814 4.411493 -0.713019 -0.978504 12.814706 -1.506828 -1.890554 14.459661 -1.529365 -1.872381 3.863688 17.224892 -1.159244 5.331221 -14.914705 -1.089277 -6.651651 -51.571832 -7.225521 -49.621020 -124.996082 -82.083882 -0.000001 0.000001 -0.000002 78.158927 -5.658309 -0.885753 -0.000001 0.000007 -2.999990 -5.000177 -7.999013 0.000150 -9.326897 57.568038 10.922923 -82.546176 101.332605 138.349867 0.000006 0.000014 0.000001 94.354624 -0.181515 11.179897 -0.000004 -0.000010 3.000002 -5.000220 7.998722 -0.000188 -85.507138 -173.001028 2.130190 179.999991 -0.000005 -1.694005 77.912712 5.916190 3.595224 -0.000005 -0.000001 2.613029 71.177463 6.925621 1.873290 27.019004 -7.295822 2.305885 -86.034709 174.133651 0.422938 -0.000020 -0.000004 -1.611520 -99.596316 -5.110035 -3.155216 -0.000005 0.000005 -2.778770 67.056653 -7.199328 -1.496760 27.329402 7.274831 -2.673046 
52.599003 5.563890 54.023701 -5.814163 -1.215985 1.797061 4.398963 -0.713251 -0.979413 12.789598 -1.507164 -1.892432 14.434555 -1.529732 -1.874251 3.871996 17.252279 -1.162301 5.484404 -14.942178 -1.070694 -6.643972 -51.623345 -7.220595 -49.726267 -125.039358 -82.104816 -0.000001 0.000002 -0.000003 77.988145 -5.725774 -0.820096 -0.000001 0.000005 -2.999990 -5.000172 -7.999015 0.000149 -9.335960 57.631121 10.937792 -82.519245 101.388394 138.244504 0.000003 0.000015 -0.000002 94.274820 -0.119981 11.086486 -0.000002 -0.000011 3.000000 -5.000215 7.998724 -0.000188 -85.422417 -172.972287 2.133733 179.999991 -0.000005 -1.695002 77.894722 5.918882 3.601249 -0.000005 -0.000001 2.613129 71.180359 6.925655 1.873916 27.020508 -7.295651 2.308129 -85.948826 174.150822 0.422150 -0.000020 -0.000003 -1.614180 -99.620911 -5.115464 -3.166778 -0.000003 0.000006 -2.780100 67.069425 -7.199520 -1.496863 27.329397 7.274793 -2.673017 
52.602501 5.556511 54.018002 -5.910514 -1.219893 1.813250 4.386440 -0.713760 -0.980230 12.764595 -1.508053 -1.894072 14.409551 -1.530629 -1.875882 3.883466 17.284400 -1.166291 5.637026 -14.974025 -1.052368 -6.635445 -51.673308 -7.214513 -49.830765 -125.082443 -82.124016 -0.000001 0.000001 -0.000002 77.817124 -5.793209 -0.754763 0.000001 0.000006 -2.999991 -5.000173 -7.999016 0.000149 -9.344181 57.696186 10.951776 -82.486917 101.444654 138.131874 0.000006 0.000014 -0.000000 94.194702 -0.057656 10.991121 -0.000001 -0.000013 2.999999 -5.000216 7.998726 -0.000188 -85.337736 -172.943709 2.136210 179.999991 -0.000005 -1.696000 77.876833 5.921572 3.607174 -0.000005 -0.000001 2.613231 71.183275 6.925721 1.874446 27.021912 -7.295493 2.310353 -85.863039 174.168185 0.422683 -0.000020 -0.000004 -1.616840 -99.645773 -5.121208 -3.177383 -0.000004 0.000005 -2.781480 67.082628 -7.199706 -1.497137 27.329296 7.274758 -2.672871 
52.607903 5.561890 54.017296 -6.006984 -1.223577 1.829336 4.373990 -0.714455 -0.980983 12.739593 -1.509295 -1.895523 14.384652 -1.531895 -1.877317 3.897528 17.320062 -1.171063 5.789168 -15.009452 -1.034204 -6.626096 -51.722509 -7.207356 -49.934885 -125.125569 -82.142082 -0.000001 0.000002 -0.000002 77.646157 -5.860558 -0.689920 -0.000000 0.000004 -2.999992 -5.000173 -7.999012 0.000150 -9.351507 57.762432 10.964748 -82.447978 101.500894 138.010625 0.000003 0.000014 -0.000000 94.114488 0.005300 10.895804 -0.000003 -0.000012 2.999999 -5.000218 7.998724 -0.000188 -85.252577 -172.915542 2.140440 179.999991 -0.000005 -1.696997 77.859061 5.924282 3.613189 -0.000007 -0.000001 2.613339 71.186069 6.925790 1.874983 27.023321 -7.295339 2.312568 -85.776951 174.185629 0.422946 -0.000020 -0.000004 -1.619520 -99.670560 -5.126892 -3.188984 -0.000003 0.000006 -2.782880 67.096117 -7.199847 -1.497280 27.329194 7.274710 -2.672628 
